<mxfile host="app.diagrams.net" modified="2024-01-23T15:58:47.439Z" agent="Mozilla/5.0 (Macintosh; Intel Mac OS X 10.15; rv:121.0) Gecko/20100101 Firefox/121.0" etag="cYWQmHTw9_R4f7zonKSW" version="22.1.22" type="github">
  <diagram name="Page-1" id="e7e014a7-5840-1c2e-5031-d8a46d1fe8dd">
    <mxGraphModel dx="1155" dy="797" grid="1" gridSize="10" guides="1" tooltips="1" connect="1" arrows="1" fold="1" page="1" pageScale="1" pageWidth="1169" pageHeight="826" background="none" math="0" shadow="0">
      <root>
        <mxCell id="0" />
        <mxCell id="1" parent="0" />
        <mxCell id="2" value="{{ attack.first_player_hand }}" style="swimlane;whiteSpace=wrap" parent="1" vertex="1">
          <mxGeometry x="444.5" y="128" width="280" height="570" as="geometry" />
        </mxCell>
        <mxCell id="dYky7ozjCTGvR8onbQTt-42" value="&lt;div&gt;{{ attack.hidden_card }}&lt;/div&gt;" style="swimlane;horizontal=0;whiteSpace=wrap;html=1;rotation=-180;" parent="2" vertex="1">
          <mxGeometry x="40" y="102" width="200" height="122" as="geometry" />
        </mxCell>
        <mxCell id="dYky7ozjCTGvR8onbQTt-43" value="&lt;div&gt;{{ attack.hidden_card }}&lt;/div&gt;" style="swimlane;horizontal=0;whiteSpace=wrap;html=1;rotation=-180;" parent="2" vertex="1">
          <mxGeometry x="40" y="225" width="200" height="122" as="geometry" />
        </mxCell>
        <mxCell id="3" value="{{ attack.first_player_table }}" style="swimlane;whiteSpace=wrap" parent="1" vertex="1">
          <mxGeometry x="724.5" y="128" width="280" height="570" as="geometry" />
        </mxCell>
        <mxCell id="dYky7ozjCTGvR8onbQTt-59" value="&lt;div&gt;{{ card.component.name }}&lt;/div&gt;" style="swimlane;horizontal=0;whiteSpace=wrap;html=1;rotation=-180;fillColor=#e1d5e7;strokeColor=#9673a6;" parent="3" vertex="1">
          <mxGeometry x="40.5" y="224" width="200" height="122" as="geometry" />
        </mxCell>
        <mxCell id="dYky7ozjCTGvR8onbQTt-60" value="&lt;div align=&quot;center&quot; style=&quot;font-size: 20px;&quot;&gt;&lt;font style=&quot;font-size: 20px;&quot;&gt;{{ card.component.types.internal_process }}&lt;br&gt;&lt;/font&gt;&lt;/div&gt;&lt;div align=&quot;center&quot;&gt;&lt;br&gt;&lt;/div&gt;" style="text;strokeColor=none;fillColor=none;align=center;verticalAlign=middle;spacingLeft=4;spacingRight=4;overflow=hidden;points=[[0,0.5],[1,0.5]];portConstraint=eastwest;rotatable=0;whiteSpace=wrap;html=1;rotation=-270;" parent="dYky7ozjCTGvR8onbQTt-59" vertex="1">
          <mxGeometry x="26" y="46" width="140" height="30" as="geometry" />
        </mxCell>
        <mxCell id="dYky7ozjCTGvR8onbQTt-41" value="{{ attack.reset }}" style="swimlane;whiteSpace=wrap" parent="1" vertex="1">
          <mxGeometry x="1004.5" y="128" width="280" height="570" as="geometry" />
        </mxCell>
        <mxCell id="-ga4N_1VcacRzFCh5T7P-6" value="&lt;div&gt;{{ attack.reset }}&lt;/div&gt;" style="swimlane;horizontal=0;whiteSpace=wrap;html=1;rotation=90;" vertex="1" parent="dYky7ozjCTGvR8onbQTt-41">
          <mxGeometry x="40" y="225" width="200" height="122" as="geometry" />
        </mxCell>
        <mxCell id="dYky7ozjCTGvR8onbQTt-74" value="{{ attack.second_player_hand }}" style="swimlane;whiteSpace=wrap" parent="1" vertex="1">
          <mxGeometry x="1284.5" y="128" width="280" height="570" as="geometry" />
        </mxCell>
        <mxCell id="dYky7ozjCTGvR8onbQTt-75" value="&lt;div&gt;{{ attack.hidden_card }}&lt;/div&gt;" style="swimlane;horizontal=0;whiteSpace=wrap;html=1;rotation=0;" parent="dYky7ozjCTGvR8onbQTt-74" vertex="1">
          <mxGeometry x="40" y="102" width="200" height="122" as="geometry" />
        </mxCell>
        <mxCell id="dYky7ozjCTGvR8onbQTt-76" value="&lt;div&gt;{{ attack.hidden_card }}&lt;/div&gt;" style="swimlane;horizontal=0;whiteSpace=wrap;html=1;rotation=0;" parent="dYky7ozjCTGvR8onbQTt-74" vertex="1">
          <mxGeometry x="40" y="225" width="200" height="122" as="geometry" />
        </mxCell>
        <mxCell id="RGcuCvIUBXCjisr0QKUh-6" value="{{ card.attack.name }}" style="swimlane;horizontal=0;whiteSpace=wrap;html=1;rotation=0;fillColor=#f8cecc;strokeColor=#b85450;" parent="dYky7ozjCTGvR8onbQTt-74" vertex="1">
          <mxGeometry x="5.5" y="392" width="200" height="122" as="geometry" />
        </mxCell>
        <mxCell id="RGcuCvIUBXCjisr0QKUh-7" value="&lt;div align=&quot;center&quot; style=&quot;font-size: 20px;&quot;&gt;&lt;font style=&quot;font-size: 20px;&quot;&gt;{{ card.attack.types.error }}&lt;br&gt;&lt;/font&gt;&lt;/div&gt;&lt;div align=&quot;center&quot;&gt;&lt;br&gt;&lt;/div&gt;" style="text;strokeColor=none;fillColor=none;align=center;verticalAlign=middle;spacingLeft=4;spacingRight=4;overflow=hidden;points=[[0,0.5],[1,0.5]];portConstraint=eastwest;rotatable=0;whiteSpace=wrap;html=1;rotation=-90;" parent="RGcuCvIUBXCjisr0QKUh-6" vertex="1">
          <mxGeometry x="30" y="46" width="140" height="30" as="geometry" />
        </mxCell>
        <mxCell id="-ga4N_1VcacRzFCh5T7P-5" style="edgeStyle=orthogonalEdgeStyle;rounded=0;orthogonalLoop=1;jettySize=auto;html=1;exitX=0;exitY=0.5;exitDx=0;exitDy=0;entryX=0;entryY=0.5;entryDx=0;entryDy=0;strokeWidth=3;" edge="1" parent="1" source="-ga4N_1VcacRzFCh5T7P-3" target="RGcuCvIUBXCjisr0QKUh-6">
          <mxGeometry relative="1" as="geometry" />
        </mxCell>
        <mxCell id="-ga4N_1VcacRzFCh5T7P-9" style="edgeStyle=orthogonalEdgeStyle;rounded=0;orthogonalLoop=1;jettySize=auto;html=1;exitX=0;exitY=0.75;exitDx=0;exitDy=0;entryX=1;entryY=0.75;entryDx=0;entryDy=0;strokeWidth=3;" edge="1" parent="1" source="-ga4N_1VcacRzFCh5T7P-3" target="-ga4N_1VcacRzFCh5T7P-6">
          <mxGeometry relative="1" as="geometry" />
        </mxCell>
        <mxCell id="-ga4N_1VcacRzFCh5T7P-3" value="&lt;div&gt;{{ card.defense.name }}&lt;/div&gt;" style="swimlane;horizontal=0;whiteSpace=wrap;html=1;rotation=-180;fillColor=#dae8fc;strokeColor=#6c8ebf;" vertex="1" parent="1">
          <mxGeometry x="520" y="520" width="200" height="122" as="geometry" />
        </mxCell>
        <mxCell id="-ga4N_1VcacRzFCh5T7P-4" value="&lt;div align=&quot;center&quot; style=&quot;font-size: 20px;&quot;&gt;&lt;font style=&quot;font-size: 20px;&quot;&gt;{{ card.defense.types.escape }}&lt;br&gt;&lt;/font&gt;&lt;/div&gt;" style="text;strokeColor=none;fillColor=none;align=center;verticalAlign=middle;spacingLeft=4;spacingRight=4;overflow=hidden;points=[[0,0.5],[1,0.5]];portConstraint=eastwest;rotatable=0;whiteSpace=wrap;html=1;rotation=-270;" vertex="1" parent="-ga4N_1VcacRzFCh5T7P-3">
          <mxGeometry x="30" y="46" width="140" height="30" as="geometry" />
        </mxCell>
        <mxCell id="-ga4N_1VcacRzFCh5T7P-10" style="edgeStyle=orthogonalEdgeStyle;rounded=0;orthogonalLoop=1;jettySize=auto;html=1;exitX=0;exitY=0.25;exitDx=0;exitDy=0;entryX=1;entryY=0.25;entryDx=0;entryDy=0;strokeWidth=3;" edge="1" parent="1" source="RGcuCvIUBXCjisr0QKUh-6" target="-ga4N_1VcacRzFCh5T7P-6">
          <mxGeometry relative="1" as="geometry" />
        </mxCell>
      </root>
    </mxGraphModel>
  </diagram>
</mxfile>
